<?xml version="1.0" encoding="UTF-8" standalone="no"?>
<!DOCTYPE svg PUBLIC "-//W3C//DTD SVG 1.1//EN"
 "http://www.w3.org/Graphics/SVG/1.1/DTD/svg11.dtd">
<!-- Generated by graphviz version 2.43.0 (0)
 -->
<!-- Title: %3 Pages: 1 -->
<svg width="327pt" height="233pt"
 viewBox="0.00 0.00 327.41 232.91" xmlns="http://www.w3.org/2000/svg" xmlns:xlink="http://www.w3.org/1999/xlink">
<g id="graph0" class="graph" transform="scale(1 1) rotate(0) translate(4 228.91)">
<title>%3</title>
<polygon fill="white" stroke="transparent" points="-4,4 -4,-228.91 323.41,-228.91 323.41,4 -4,4"/>
<g id="clust1" class="cluster">
<title>cluster250</title>
<path fill="none" stroke="black" d="M138.69,-8C138.69,-8 214.69,-8 214.69,-8 220.69,-8 226.69,-14 226.69,-20 226.69,-20 226.69,-109.95 226.69,-109.95 226.69,-115.95 220.69,-121.95 214.69,-121.95 214.69,-121.95 138.69,-121.95 138.69,-121.95 132.69,-121.95 126.69,-115.95 126.69,-109.95 126.69,-109.95 126.69,-20 126.69,-20 126.69,-14 132.69,-8 138.69,-8"/>
<text text-anchor="middle" x="208.19" y="-15.8" font-family="Times,serif" font-size="14.00">250</text>
</g>
<!-- σ -->
<g id="node1" class="node">
<title>σ</title>
<ellipse fill="none" stroke="black" cx="58.69" cy="-187.43" rx="58.88" ry="37.45"/>
<text text-anchor="middle" x="58.69" y="-198.73" font-family="Times,serif" font-size="14.00">σ</text>
<text text-anchor="middle" x="58.69" y="-183.73" font-family="Times,serif" font-size="14.00">~</text>
<text text-anchor="middle" x="58.69" y="-168.73" font-family="Times,serif" font-size="14.00">HalfNormal</text>
</g>
<!-- obs -->
<g id="node4" class="node">
<title>obs</title>
<ellipse fill="lightgrey" stroke="black" cx="176.69" cy="-76.48" rx="41.94" ry="37.45"/>
<text text-anchor="middle" x="176.69" y="-87.78" font-family="Times,serif" font-size="14.00">obs</text>
<text text-anchor="middle" x="176.69" y="-72.78" font-family="Times,serif" font-size="14.00">~</text>
<text text-anchor="middle" x="176.69" y="-57.78" font-family="Times,serif" font-size="14.00">Normal</text>
</g>
<!-- σ&#45;&gt;obs -->
<g id="edge3" class="edge">
<title>σ&#45;&gt;obs</title>
<path fill="none" stroke="black" d="M91.56,-156.08C106.8,-142.01 124.95,-125.25 140.57,-110.83"/>
<polygon fill="black" stroke="black" points="143.03,-113.32 148.01,-103.96 138.29,-108.17 143.03,-113.32"/>
</g>
<!-- β -->
<g id="node2" class="node">
<title>β</title>
<ellipse fill="none" stroke="black" cx="176.69" cy="-187.43" rx="41.94" ry="37.45"/>
<text text-anchor="middle" x="176.69" y="-198.73" font-family="Times,serif" font-size="14.00">β</text>
<text text-anchor="middle" x="176.69" y="-183.73" font-family="Times,serif" font-size="14.00">~</text>
<text text-anchor="middle" x="176.69" y="-168.73" font-family="Times,serif" font-size="14.00">Normal</text>
</g>
<!-- β&#45;&gt;obs -->
<g id="edge1" class="edge">
<title>β&#45;&gt;obs</title>
<path fill="none" stroke="black" d="M176.69,-149.85C176.69,-141.67 176.69,-132.89 176.69,-124.37"/>
<polygon fill="black" stroke="black" points="180.19,-124.15 176.69,-114.15 173.19,-124.15 180.19,-124.15"/>
</g>
<!-- α -->
<g id="node3" class="node">
<title>α</title>
<ellipse fill="none" stroke="black" cx="277.69" cy="-187.43" rx="41.94" ry="37.45"/>
<text text-anchor="middle" x="277.69" y="-198.73" font-family="Times,serif" font-size="14.00">α</text>
<text text-anchor="middle" x="277.69" y="-183.73" font-family="Times,serif" font-size="14.00">~</text>
<text text-anchor="middle" x="277.69" y="-168.73" font-family="Times,serif" font-size="14.00">Normal</text>
</g>
<!-- α&#45;&gt;obs -->
<g id="edge2" class="edge">
<title>α&#45;&gt;obs</title>
<path fill="none" stroke="black" d="M251.42,-158.09C238.77,-144.45 223.48,-127.95 210.02,-113.44"/>
<polygon fill="black" stroke="black" points="212.55,-111.01 203.18,-106.06 207.41,-115.77 212.55,-111.01"/>
</g>
</g>
</svg>
